<?xml version="1.0" encoding="UTF-8"?>
<svg width="16px" height="17px" viewBox="0 0 16 17" version="1.1" xmlns="http://www.w3.org/2000/svg" xmlns:xlink="http://www.w3.org/1999/xlink">
    <title>bullet</title>
    <g id="页面-2" stroke="none" stroke-width="1" fill="none" fill-rule="evenodd">
        <g id="画板" transform="translate(-196.000000, -263.000000)">
            <g id="bullet" transform="translate(204.000000, 271.398693) scale(1, -1) translate(-204.000000, -271.398693) translate(196.000000, 263.398693)">
                <rect id="矩形" fill-opacity="0" fill="#B07979" x="0" y="0" width="16" height="16"></rect>
                <polygon id="路径" fill="#D8D8D8" fill-rule="nonzero" points="11.5714248 6.85702002 11.5714248 8.28553666 10.1428497 8.28553666 10.1428497 9.71402709 8.71427448 9.71402709 8.71427448 11.1425437 7.28571242 11.1425437 7.28571242 9.71402726 5.85713724 9.71402726 5.85713724 8.28553683 4.42857517 8.28553683 4.42857517 6.85702019 3 6.85702019 3 4 4.42857517 4 4.42857517 5.42850354 5.85713724 5.42850354 5.85713724 6.85702019 7.28571241 6.85702019 7.28571241 8.28553683 8.71427448 8.28553683 8.71427448 6.85702019 10.1428496 6.85702019 10.1428497 5.42850354 11.5714248 5.42850354 11.5714248 4 13 4 13 6.85702017 11.5714248 6.85702019"></polygon>
            </g>
        </g>
    </g>
</svg>