<?xml version="1.0" encoding="UTF-8"?>
<svg width="27px" height="27px" viewBox="0 0 27 27" version="1.1" xmlns="http://www.w3.org/2000/svg" xmlns:xlink="http://www.w3.org/1999/xlink">
    <title>enemy</title>
    <g id="页面-2" stroke="none" stroke-width="1" fill="none" fill-rule="evenodd">
        <g id="画板" transform="translate(-279.000000, -129.000000)" fill="#D8D8D8" fill-rule="nonzero">
            <path d="M294.55068,154.26182 L294.55068,155.88682 L291.30068,155.88682 L291.30068,154.26182 L284.80068,154.26182 L284.80068,151.01182 L286.42568,151.01182 L286.42568,149.38682 L288.05068,149.38682 L288.05068,146.13682 L279.92568,146.13682 L279.92568,141.26182 L281.55068,141.26182 L281.55068,139.63682 L283.17568,139.63682 L283.17568,136.38682 L286.42568,136.38682 L286.42568,138.01182 L288.05068,138.01182 L288.05068,133.13682 L289.67568,133.13682 L289.67568,131.51182 L291.30068,131.51182 L291.30068,129.88682 L294.55068,129.88682 L294.55068,131.51182 L296.17568,131.51182 L296.17568,133.13682 L297.80068,133.13682 L297.80068,138.01182 L299.42568,138.01182 L299.42568,136.38682 L302.67568,136.38682 L302.67568,139.63682 L304.30068,139.63682 L304.30068,141.26182 L305.92568,141.26182 L305.92568,146.13682 L297.80068,146.13682 L297.80068,149.38682 L299.42568,149.38682 L299.42568,151.01182 L301.05068,151.01182 L301.05068,154.26182 L294.55068,154.26182 Z M294.55068,134.76182 L291.30068,134.76182 L291.30068,149.38682 L294.55068,149.38682 L294.55068,134.76182 Z" id="enemy" transform="translate(292.925680, 142.886820) scale(1, -1) translate(-292.925680, -142.886820) "></path>
        </g>
    </g>
</svg>