<?xml version="1.0" encoding="UTF-8"?>
<svg width="37px" height="30px" viewBox="0 0 37 30" version="1.1" xmlns="http://www.w3.org/2000/svg" xmlns:xlink="http://www.w3.org/1999/xlink">
    <title>explosion</title>
    <g id="页面-2" stroke="none" stroke-width="1" fill="none" fill-rule="evenodd">
        <g id="画板" transform="translate(-204.000000, -143.000000)" fill="#F30000" fill-rule="nonzero">
            <path d="M229.965265,143.356155 L231.225769,146.81936 L229.494166,147.449612 L230.124418,149.181215 L228.392815,149.811467 L229.653319,153.274672 L238.311333,150.123413 L240.202088,155.318221 L238.470485,155.948473 L239.100737,157.680076 L237.369134,158.310328 L238.629638,161.773533 L235.166433,163.034037 L234.536181,161.302434 L232.804578,161.932686 L234.695334,167.127495 L232.963731,167.757747 L233.593983,169.489349 L231.86238,170.119601 L232.492632,171.851204 L230.546261,172.559759 C230.467039,172.155884 230.355563,171.75294 230.210378,171.354048 L230.210378,171.354048 L228.746847,167.330947 L230.601876,166.656396 L224.929609,151.07197 L223.074443,151.746145 L222.202088,149.349155 L221.329734,151.746145 L219.474567,151.07197 L213.8023,166.656396 L215.65733,167.330947 L214.193798,171.354048 C214.048613,171.75294 213.937137,172.155884 213.857915,172.559759 L211.911545,171.851204 L212.541796,170.119601 L210.810194,169.489349 L211.440446,167.757747 L209.708843,167.127495 L211.599598,161.932686 L209.867996,161.302434 L209.237744,163.034037 L205.774538,161.773533 L207.035042,158.310328 L205.303439,157.680076 L205.933691,155.948473 L204.202088,155.318221 L206.092844,150.123413 L214.750858,153.274672 L216.011361,149.811467 L214.279759,149.181215 L214.910011,147.449612 L213.178408,146.81936 L214.438911,143.356155 L220.864164,145.695512 C220.744478,145.404401 220.609333,145.1239 220.460037,144.854619 L220.460037,144.854619 L221.932088,144.318155 L221.995575,144.145559 L222.202088,144.220155 L222.408602,144.145559 L222.471088,144.318155 L223.944139,144.854619 C223.794843,145.1239 223.659698,145.404401 223.540012,145.695512 L229.965265,143.356155 Z" id="explosion"></path>
        </g>
    </g>
</svg>