<?xml version="1.0" encoding="UTF-8"?>
<svg width="31px" height="53px" viewBox="0 0 31 53" version="1.1" xmlns="http://www.w3.org/2000/svg" xmlns:xlink="http://www.w3.org/1999/xlink">
    <title>编组</title>
    <g id="页面-2" stroke="none" stroke-width="1" fill="none" fill-rule="evenodd">
        <g id="画板" transform="translate(-248.000000, -230.000000)">
            <g id="编组" transform="translate(248.000000, 230.398693)">
                <rect id="矩形" fill-opacity="0" fill="#B07979" x="0" y="0" width="31" height="52"></rect>
                <path d="M17.5506801,27.5269872 L14.3006801,27.5269872 L14.3006801,25.9009872 L7.80068005,25.9019872 L7.80068005,22.6519872 L12.6756801,22.6519872 L12.6746801,24.2759872 L12.6756801,24.2759872 L12.6756801,19.4019872 L14.3006801,19.4019872 L14.3006801,21.0269872 L17.5506801,21.0269872 L17.5506801,24.2769872 L19.1756801,24.2769872 L19.1756801,24.2769872 L17.5506801,24.2769872 L17.5506801,17.7769872 L20.8006801,17.7769872 L20.8006801,21.0269872 L20.8006801,21.0269872 L20.8006801,22.6519872 L20.8006801,22.6519872 L20.8006801,21.0269872 L22.4256801,21.0269872 L22.4256801,22.6519872 L24.0506801,22.6519872 L24.0506801,25.9019872 L20.8006801,25.9019872 L20.8006801,24.2769872 L20.8006801,24.2769872 L20.8006801,25.9019872 L17.5506801,25.9019872 L17.5506801,27.5269872 Z M17.5506801,1.52698724 L17.5506801,3.15098724 L19.1756801,3.15198724 L19.1756801,4.77698724 L19.1746801,4.77598724 L19.1756801,8.02698724 L17.5506801,8.02698724 L17.5496801,6.40198724 L14.3006801,6.40198724 L14.3006801,8.02698724 L12.6756801,8.02698724 L12.6756801,4.77698724 L12.6756801,4.77698724 L12.6756801,9.65198724 L12.6756801,9.65098724 L12.6756801,8.02698724 L14.3006801,8.02698724 L14.3006801,9.65198724 L14.2996801,9.65198724 L14.3006801,11.2769872 L12.6756801,11.2769872 L12.6756801,12.9019872 L12.6756801,12.9019872 L12.6756801,11.2769872 L14.3006801,11.2769872 L14.3006801,12.9019872 L14.3006801,12.9019872 L14.3006801,14.5269872 L12.6756801,14.5269872 L12.6756801,16.1519872 L12.6756801,16.1509872 L12.6756801,14.5269872 L14.3006801,14.5269872 L14.3006801,16.1519872 L14.2996801,16.1519872 L14.3006801,17.7769872 L12.6756801,17.7769872 L12.6756801,22.6519872 L9.42568005,22.6519872 L9.42568005,21.0269872 L11.0506801,21.0269872 L11.0506801,17.7769872 L2.92568005,17.7769872 L2.92568005,12.9019872 L4.55068005,12.9019872 L4.55068005,16.1519872 L4.55068005,16.1509872 L4.55068005,12.9019872 L11.0496801,12.9019872 L11.0496801,12.9009872 L6.17568005,12.9019872 L6.17568005,11.2769872 L11.0496801,11.2769872 L11.0506801,11.2769872 L6.17568005,11.2769872 L6.17568005,12.9019872 L4.55068005,12.9019872 L4.55068005,11.2769872 L6.17568005,11.2769872 L6.17568005,8.02698724 L9.42568005,8.02698724 L9.42568005,9.65198724 L11.0506801,9.65198724 L11.0506801,4.77698724 L12.6756801,4.77698724 L12.6756801,3.15198724 L14.3006801,3.15198724 L14.3006801,4.77698724 L14.3006801,4.77698724 L14.3006801,1.52698724 L17.5506801,1.52698724 Z M14.3006801,17.7769872 L14.3006801,19.4019872 L12.6756801,19.4019872 L12.6756801,17.7769872 L14.3006801,17.7769872 Z M20.8006801,16.1519872 L20.8006801,17.7769872 L17.5506801,17.7769872 L17.5506801,14.5269872 L19.1756801,14.5269872 L19.1756801,16.1519872 L19.1756801,16.1519872 L19.1756801,14.5269872 L17.5506801,14.5269872 L17.5506801,11.2769872 L19.1756801,11.2769872 L19.1756801,12.9019872 L19.1756801,12.9019872 L19.1756801,11.2769872 L17.5506801,11.2769872 L17.5506801,8.02698724 L19.1756801,8.02698724 L19.1746801,9.65098724 L19.1756801,9.65198724 L19.1756801,4.77698724 L20.8006801,4.77698724 L20.8006801,9.65198724 L20.8006801,9.65198724 L20.8006801,11.2769872 L20.8006801,11.2769872 L20.8006801,11.2769872 L25.6746801,11.2769872 L25.6756801,11.2769872 L27.3006801,11.2769872 L27.3006801,12.9019872 L28.9256801,12.9019872 L28.9256801,17.7769872 L27.3006801,17.7769872 L27.3006801,16.1519872 L27.3006801,16.1519872 L27.3006801,17.7769872 L20.8006801,17.7769872 L20.8006801,16.1519872 L20.8006801,16.1519872 Z M25.6756801,8.02698724 L25.6756801,11.2769872 L20.8006801,11.2769872 L20.8006801,9.65098724 L22.4256801,9.65198724 L22.4256801,8.02698724 L25.6756801,8.02698724 Z" id="player" fill="#FF6A00" fill-rule="nonzero"></path>
            </g>
        </g>
    </g>
</svg>